<?xml version="1.0" encoding="UTF-8" standalone="no"?>
<!DOCTYPE svg PUBLIC "-//W3C//DTD SVG 1.1//EN" "http://www.w3.org/Graphics/SVG/1.1/DTD/svg11.dtd">
<!-- Created with Vectornator (http://vectornator.io/) -->
<svg height="100%" stroke-miterlimit="10" style="fill-rule:nonzero;clip-rule:evenodd;stroke-linecap:round;stroke-linejoin:round;" version="1.1" viewBox="0 0 200 200" width="100%" xml:space="preserve" xmlns="http://www.w3.org/2000/svg" xmlns:xlink="http://www.w3.org/1999/xlink">
<defs>
<clipPath id="TextBounds">
<rect height="31.1439" width="154.49" x="22.755" y="135.005"/>
</clipPath>
</defs>
<g id="Layer-1">
<g opacity="1">
<path d="M100 0C44.77 0 3.33583e-07 44.77 0 100C0 155.23 44.77 200 100 200C155.23 200 200 155.23 200 100C200 44.77 155.23 3.33583e-07 100 0Z" fill="#ff7f00" fill-rule="nonzero" opacity="1" stroke="none"/>
<g opacity="1">
<g fill="#fddf19" opacity="1" stroke="none">
<path clip-path="url(#TextBounds)" d="M34.55 141.331L39.302 141.331L39.302 144.719L42.074 141.331L47.816 141.331L42.646 148.041L48.08 156.005L42.426 156.005L39.302 151.473L39.302 156.005L34.55 156.005L34.55 141.331ZM37.322 154.245L37.322 151.275L39.61 148.437L43.614 154.245L44.296 154.245L40.006 147.975L43.944 143.091L43.24 143.091L37.322 150.395L37.322 143.091L36.75 143.091L36.75 154.245L37.322 154.245Z"/>
<path clip-path="url(#TextBounds)" d="M46.1 148.679C46.1 147.623 46.3017 146.626 46.705 145.687C47.1083 144.748 47.6583 143.931 48.355 143.234C49.0517 142.537 49.8693 141.987 50.808 141.584C51.7467 141.181 52.744 140.979 53.8 140.979C54.856 140.979 55.8533 141.181 56.792 141.584C57.7307 141.987 58.5483 142.537 59.245 143.234C59.9417 143.931 60.4917 144.748 60.895 145.687C61.2983 146.626 61.5 147.623 61.5 148.679C61.5 149.735 61.2983 150.732 60.895 151.671C60.4917 152.61 59.9417 153.427 59.245 154.124C58.5483 154.821 57.7307 155.371 56.792 155.774C55.8533 156.177 54.856 156.379 53.8 156.379C52.744 156.379 51.7467 156.177 50.808 155.774C49.8693 155.371 49.0517 154.821 48.355 154.124C47.6583 153.427 47.1083 152.61 46.705 151.671C46.3017 150.732 46.1 149.735 46.1 148.679ZM48.168 148.679C48.168 149.456 48.3147 150.186 48.608 150.868C48.9013 151.55 49.3047 152.148 49.818 152.661C50.3313 153.174 50.929 153.578 51.611 153.871C52.293 154.164 53.0227 154.311 53.8 154.311C54.5773 154.311 55.307 154.164 55.989 153.871C56.671 153.578 57.2687 153.174 57.782 152.661C58.2953 152.148 58.6987 151.55 58.992 150.868C59.2853 150.186 59.432 149.456 59.432 148.679C59.432 147.902 59.2853 147.172 58.992 146.49C58.6987 145.808 58.2953 145.21 57.782 144.697C57.2687 144.184 56.671 143.78 55.989 143.487C55.307 143.194 54.5773 143.047 53.8 143.047C53.0227 143.047 52.293 143.194 51.611 143.487C50.929 143.78 50.3313 144.184 49.818 144.697C49.3047 145.21 48.9013 145.808 48.608 146.49C48.3147 147.172 48.168 147.902 48.168 148.679ZM50.72 148.679C50.72 149.104 50.8007 149.504 50.962 149.878C51.1233 150.252 51.3433 150.578 51.622 150.857C51.9007 151.136 52.227 151.356 52.601 151.517C52.975 151.678 53.3747 151.759 53.8 151.759C54.2253 151.759 54.625 151.678 54.999 151.517C55.373 151.356 55.6993 151.136 55.978 150.857C56.2567 150.578 56.4767 150.252 56.638 149.878C56.7993 149.504 56.88 149.104 56.88 148.679C56.88 148.254 56.7993 147.854 56.638 147.48C56.4767 147.106 56.2567 146.78 55.978 146.501C55.6993 146.222 55.373 146.002 54.999 145.841C54.625 145.68 54.2253 145.599 53.8 145.599C53.3747 145.599 52.975 145.68 52.601 145.841C52.227 146.002 51.9007 146.222 51.622 146.501C51.3433 146.78 51.1233 147.106 50.962 147.48C50.8007 147.854 50.72 148.254 50.72 148.679ZM53.8 153.739C53.096 153.739 52.4397 153.607 51.831 153.343C51.2223 153.079 50.687 152.716 50.225 152.254C49.763 151.792 49.4 151.257 49.136 150.648C48.872 150.039 48.74 149.383 48.74 148.679C48.74 147.975 48.872 147.319 49.136 146.71C49.4 146.101 49.763 145.566 50.225 145.104C50.687 144.642 51.2223 144.279 51.831 144.015C52.4397 143.751 53.096 143.619 53.8 143.619C54.504 143.619 55.1603 143.751 55.769 144.015C56.3777 144.279 56.913 144.642 57.375 145.104C57.837 145.566 58.2 146.101 58.464 146.71C58.728 147.319 58.86 147.975 58.86 148.679C58.86 149.383 58.728 150.039 58.464 150.648C58.2 151.257 57.837 151.792 57.375 152.254C56.913 152.716 56.3777 153.079 55.769 153.343C55.1603 153.607 54.504 153.739 53.8 153.739Z"/>
<path clip-path="url(#TextBounds)" d="M67.066 141.331L70.586 141.331L76.152 156.005L71.532 156.005L71.048 154.685L66.604 154.685L66.12 156.005L61.5 156.005L67.066 141.331ZM69.816 151.451L68.826 148.877L67.836 151.451L69.816 151.451ZM64.778 154.245L65.196 153.145L72.456 153.145L72.874 154.245L73.49 154.245L69.244 143.091L68.408 143.091L64.162 154.245L64.778 154.245ZM68.826 143.619L72.258 152.617L65.394 152.617L68.826 143.619Z"/>
<path clip-path="url(#TextBounds)" d="M76.482 141.331L81.366 141.331L81.366 152.155L85.414 152.155L85.414 156.005L76.482 156.005L76.482 141.331ZM84.182 154.245L84.182 153.717L79.254 153.717L79.254 143.091L78.682 143.091L78.682 154.245L84.182 154.245Z"/>
<path clip-path="url(#TextBounds)" d="M90.54 141.331L94.06 141.331L99.626 156.005L95.006 156.005L94.522 154.685L90.078 154.685L89.594 156.005L84.974 156.005L90.54 141.331ZM93.29 151.451L92.3 148.877L91.31 151.451L93.29 151.451ZM88.252 154.245L88.67 153.145L95.93 153.145L96.348 154.245L96.964 154.245L92.718 143.091L91.882 143.091L87.636 154.245L88.252 154.245ZM92.3 143.619L95.732 152.617L88.868 152.617L92.3 143.619Z"/>
<path clip-path="url(#TextBounds)" d="M102.398 148.679C102.398 147.975 102.519 147.315 102.761 146.699C103.003 146.083 103.344 145.548 103.784 145.093C104.224 144.638 104.759 144.279 105.39 144.015C106.021 143.751 106.725 143.619 107.502 143.619C107.883 143.619 108.224 143.645 108.525 143.696C108.826 143.747 109.079 143.81 109.284 143.883C109.533 143.956 109.746 144.044 109.922 144.147L110.23 143.619C109.995 143.516 109.746 143.421 109.482 143.333C109.233 143.26 108.947 143.194 108.624 143.135C108.301 143.076 107.927 143.047 107.502 143.047C106.754 143.047 106.039 143.179 105.357 143.443C104.675 143.707 104.074 144.085 103.553 144.576C103.032 145.067 102.614 145.661 102.299 146.358C101.984 147.055 101.826 147.828 101.826 148.679C101.826 149.544 101.976 150.322 102.277 151.011C102.578 151.7 102.992 152.291 103.52 152.782C104.048 153.273 104.664 153.651 105.368 153.915C106.072 154.179 106.82 154.311 107.612 154.311C108.052 154.311 108.448 154.274 108.8 154.201C109.152 154.128 109.453 154.047 109.702 153.959C109.981 153.856 110.23 153.739 110.45 153.607L110.142 153.079C109.951 153.211 109.731 153.321 109.482 153.409C109.262 153.497 108.998 153.574 108.69 153.64C108.382 153.706 108.023 153.739 107.612 153.739C106.805 153.739 106.079 153.607 105.434 153.343C104.789 153.079 104.242 152.72 103.795 152.265C103.348 151.81 103.003 151.275 102.761 150.659C102.519 150.043 102.398 149.383 102.398 148.679ZM99.626 148.679C99.626 147.506 99.8313 146.446 100.242 145.5C100.653 144.554 101.21 143.744 101.914 143.069C102.618 142.394 103.439 141.877 104.378 141.518C105.317 141.159 106.314 140.979 107.37 140.979C108.206 140.979 108.95 141.06 109.603 141.221C110.256 141.382 110.817 141.566 111.286 141.771C111.829 142.006 112.298 142.262 112.694 142.541L110.384 146.611C110.149 146.435 109.893 146.266 109.614 146.105C109.365 145.988 109.068 145.874 108.723 145.764C108.378 145.654 107.986 145.599 107.546 145.599C107.091 145.599 106.673 145.68 106.292 145.841C105.911 146.002 105.577 146.222 105.291 146.501C105.005 146.78 104.781 147.106 104.62 147.48C104.459 147.854 104.378 148.254 104.378 148.679C104.378 149.104 104.462 149.504 104.631 149.878C104.8 150.252 105.031 150.578 105.324 150.857C105.617 151.136 105.962 151.356 106.358 151.517C106.754 151.678 107.187 151.759 107.656 151.759C108.125 151.759 108.543 151.7 108.91 151.583C109.277 151.466 109.585 151.334 109.834 151.187C110.127 151.026 110.384 150.835 110.604 150.615L112.914 154.685C112.518 155.008 112.049 155.294 111.506 155.543C111.037 155.748 110.472 155.939 109.812 156.115C109.152 156.291 108.397 156.379 107.546 156.379C106.402 156.379 105.346 156.192 104.378 155.818C103.41 155.444 102.574 154.92 101.87 154.245C101.166 153.57 100.616 152.76 100.22 151.814C99.824 150.868 99.626 149.823 99.626 148.679Z"/>
<path clip-path="url(#TextBounds)" d="M113.464 141.331L118.348 141.331L118.348 152.155L122.396 152.155L122.396 156.005L113.464 156.005L113.464 141.331ZM121.164 154.245L121.164 153.717L116.236 153.717L116.236 143.091L115.664 143.091L115.664 154.245L121.164 154.245Z"/>
<path clip-path="url(#TextBounds)" d="M122.836 148.679C122.836 147.623 123.038 146.626 123.441 145.687C123.844 144.748 124.394 143.931 125.091 143.234C125.788 142.537 126.605 141.987 127.544 141.584C128.483 141.181 129.48 140.979 130.536 140.979C131.592 140.979 132.589 141.181 133.528 141.584C134.467 141.987 135.284 142.537 135.981 143.234C136.678 143.931 137.228 144.748 137.631 145.687C138.034 146.626 138.236 147.623 138.236 148.679C138.236 149.735 138.034 150.732 137.631 151.671C137.228 152.61 136.678 153.427 135.981 154.124C135.284 154.821 134.467 155.371 133.528 155.774C132.589 156.177 131.592 156.379 130.536 156.379C129.48 156.379 128.483 156.177 127.544 155.774C126.605 155.371 125.788 154.821 125.091 154.124C124.394 153.427 123.844 152.61 123.441 151.671C123.038 150.732 122.836 149.735 122.836 148.679ZM124.904 148.679C124.904 149.456 125.051 150.186 125.344 150.868C125.637 151.55 126.041 152.148 126.554 152.661C127.067 153.174 127.665 153.578 128.347 153.871C129.029 154.164 129.759 154.311 130.536 154.311C131.313 154.311 132.043 154.164 132.725 153.871C133.407 153.578 134.005 153.174 134.518 152.661C135.031 152.148 135.435 151.55 135.728 150.868C136.021 150.186 136.168 149.456 136.168 148.679C136.168 147.902 136.021 147.172 135.728 146.49C135.435 145.808 135.031 145.21 134.518 144.697C134.005 144.184 133.407 143.78 132.725 143.487C132.043 143.194 131.313 143.047 130.536 143.047C129.759 143.047 129.029 143.194 128.347 143.487C127.665 143.78 127.067 144.184 126.554 144.697C126.041 145.21 125.637 145.808 125.344 146.49C125.051 147.172 124.904 147.902 124.904 148.679ZM127.456 148.679C127.456 149.104 127.537 149.504 127.698 149.878C127.859 150.252 128.079 150.578 128.358 150.857C128.637 151.136 128.963 151.356 129.337 151.517C129.711 151.678 130.111 151.759 130.536 151.759C130.961 151.759 131.361 151.678 131.735 151.517C132.109 151.356 132.435 151.136 132.714 150.857C132.993 150.578 133.213 150.252 133.374 149.878C133.535 149.504 133.616 149.104 133.616 148.679C133.616 148.254 133.535 147.854 133.374 147.48C133.213 147.106 132.993 146.78 132.714 146.501C132.435 146.222 132.109 146.002 131.735 145.841C131.361 145.68 130.961 145.599 130.536 145.599C130.111 145.599 129.711 145.68 129.337 145.841C128.963 146.002 128.637 146.222 128.358 146.501C128.079 146.78 127.859 147.106 127.698 147.48C127.537 147.854 127.456 148.254 127.456 148.679ZM130.536 153.739C129.832 153.739 129.176 153.607 128.567 153.343C127.958 153.079 127.423 152.716 126.961 152.254C126.499 151.792 126.136 151.257 125.872 150.648C125.608 150.039 125.476 149.383 125.476 148.679C125.476 147.975 125.608 147.319 125.872 146.71C126.136 146.101 126.499 145.566 126.961 145.104C127.423 144.642 127.958 144.279 128.567 144.015C129.176 143.751 129.832 143.619 130.536 143.619C131.24 143.619 131.896 143.751 132.505 144.015C133.114 144.279 133.649 144.642 134.111 145.104C134.573 145.566 134.936 146.101 135.2 146.71C135.464 147.319 135.596 147.975 135.596 148.679C135.596 149.383 135.464 150.039 135.2 150.648C134.936 151.257 134.573 151.792 134.111 152.254C133.649 152.716 133.114 153.079 132.505 153.343C131.896 153.607 131.24 153.739 130.536 153.739Z"/>
<path clip-path="url(#TextBounds)" d="M145.452 156.379C144.528 156.379 143.692 156.262 142.944 156.027C142.196 155.792 141.558 155.44 141.03 154.971C140.502 154.502 140.095 153.908 139.809 153.189C139.523 152.47 139.38 151.627 139.38 150.659L139.38 141.331L144.066 141.331L144.066 150.461C144.066 150.974 144.172 151.367 144.385 151.638C144.598 151.909 144.953 152.045 145.452 152.045C145.951 152.045 146.306 151.909 146.519 151.638C146.732 151.367 146.838 150.974 146.838 150.461L146.838 141.331L151.546 141.331L151.546 150.659C151.546 151.627 151.403 152.47 151.117 153.189C150.831 153.908 150.42 154.502 149.885 154.971C149.35 155.44 148.708 155.792 147.96 156.027C147.212 156.262 146.376 156.379 145.452 156.379ZM145.452 153.739C143.252 153.739 142.152 152.661 142.152 150.505L142.152 143.091L141.58 143.091L141.58 150.505C141.58 151.737 141.914 152.679 142.581 153.332C143.248 153.985 144.205 154.311 145.452 154.311C146.699 154.311 147.659 153.985 148.334 153.332C149.009 152.679 149.346 151.737 149.346 150.505L149.346 143.091L148.752 143.091L148.752 150.505C148.752 152.661 147.652 153.739 145.452 153.739Z"/>
<path clip-path="url(#TextBounds)" d="M153.02 156.005L153.02 141.331L157.09 141.331C158.469 141.331 159.697 141.485 160.775 141.793C161.853 142.101 162.762 142.563 163.503 143.179C164.244 143.795 164.808 144.561 165.197 145.478C165.586 146.395 165.78 147.454 165.78 148.657C165.78 149.86 165.586 150.919 165.197 151.836C164.808 152.753 164.244 153.519 163.503 154.135C162.762 154.751 161.853 155.217 160.775 155.532C159.697 155.847 158.469 156.005 157.09 156.005L153.02 156.005ZM155.792 153.717L155.792 143.619L157.09 143.619C158.953 143.619 160.401 144.041 161.435 144.884C162.469 145.727 162.986 146.985 162.986 148.657C162.986 150.329 162.469 151.59 161.435 152.441C160.401 153.292 158.953 153.717 157.09 153.717L155.792 153.717ZM155.22 154.245L157.09 154.245C159.231 154.245 160.848 153.757 161.941 152.782C163.034 151.807 163.58 150.432 163.58 148.657C163.58 146.882 163.034 145.511 161.941 144.543C160.848 143.575 159.231 143.091 157.09 143.091L155.22 143.091L155.22 154.245ZM157.706 151.825C158.806 151.825 159.657 151.565 160.258 151.044C160.859 150.523 161.16 149.728 161.16 148.657C161.16 147.586 160.859 146.794 160.258 146.281C159.657 145.768 158.806 145.511 157.706 145.511L157.706 151.825Z"/>
</g>
<path d="M51.7835 33.9334C50.7014 33.9518 48.1873 34.1183 47.536 34.7696C47.7058 34.9394 47.7006 34.9676 47.8704 35.1375C46.9508 36.0571 45.5544 36.3716 44.4591 36.8097C43.1329 37.3402 40.0051 40.7954 39.041 41.7595C37.5464 43.2541 36.7285 46.5326 34.7935 47.1776C34.7935 49.8361 34.0626 49.749 33.5895 51.7595C32.7725 55.2317 33.3537 58.8955 33.4223 62.4619C33.4283 62.7747 34.145 62.9146 34.2918 62.9635C34.2918 67.3732 39.8007 75.8405 44.2918 77.9134C45.6851 78.5564 47.3713 79.0181 48.8738 79.6191C49.4203 79.8377 49.2924 80.3522 49.9106 80.4552C50.5349 80.5592 51.1512 80.7943 51.7835 80.8231C54.1587 80.931 56.5479 80.5282 58.9072 80.8231C60.6372 81.0393 59.9957 85.916 60.2785 87.6124C60.5937 89.5041 62.0305 90.8283 62.653 92.696C62.9678 93.6402 64.6513 94.1089 65.0276 95.2378C65.8427 95.2378 70.3639 98.926 71.148 99.3181C72.3369 99.9125 74.2484 99.4613 75.5627 99.8197C80.3703 101.131 85.5297 100.211 90.5126 100.154C90.9794 100.149 91.4328 100.029 91.8504 99.8197C95.2536 98.1181 89.2724 92.1833 88.6397 89.6525C88.4161 88.7584 88.1515 87.8315 88.138 86.91C88.083 83.174 88.0281 79.4408 88.138 75.706C88.1462 75.4254 88.9378 75.2064 88.9741 75.0371C89.1165 74.3729 88.7218 73.6277 88.9741 72.997C89.212 72.4023 89.9452 72.1259 90.3453 71.6258C92.8882 68.4472 95.8078 66.9628 100.178 67.5455C100.496 67.5878 100.536 68.1701 100.847 68.2478C102.875 68.7549 105.113 68.2203 106.633 70.1207C107.776 71.55 109.533 72.8364 109.676 74.7027C109.79 76.1746 109 78.0735 110.044 79.1174C109.568 80.0702 110.306 81.1131 110.044 82.1609C109.343 84.9665 109.745 88.0011 109.342 90.8231C109.308 91.0614 108.575 91.3767 108.506 91.492C108.213 91.9798 108.519 92.6579 108.339 93.1977C107.917 94.4631 106.705 95.6683 105.63 96.609C105.066 97.1024 104.2 98.8933 105.262 99.3181C105.649 99.4728 107.091 99.9831 107.469 99.987C112.904 100.042 118.356 100.037 123.79 99.987C128.647 99.9424 134.521 96.6613 137.202 92.1943C137.878 91.0665 137.464 89.1674 137.87 87.9468C138.048 87.4151 138.955 87.2903 139.074 86.7428C139.377 85.3602 138.924 83.9026 139.074 82.4953C139.1 82.2565 139.336 82.0096 139.576 81.9936C141.949 81.8355 144.322 81.9936 146.7 81.9936C147.759 81.9936 152.699 81.1113 152.82 80.9903C152.735 80.8205 152.738 80.7922 152.653 80.6224C153.739 79.5362 154.723 79.5375 155.897 78.9502C158.242 77.7779 160.467 75.5604 162.185 73.4987C168.1 66.3999 167.077 57.3257 166.064 48.2144C165.993 47.5728 164.93 47.5392 164.559 47.0104C164.308 46.6507 164.269 45.2929 164.024 44.803C163.755 44.2647 163.078 44.0559 162.686 43.599C161.784 42.5463 161.287 40.7019 159.977 39.7194C158.903 38.9139 157.763 38.3025 156.566 37.3448C156.736 37.175 156.731 37.1468 156.901 36.9769C156.492 36.5687 155.761 36.7557 155.195 36.6425C153.972 36.398 152.66 34.5484 151.482 34.2679C150.485 34.0304 149.43 33.964 148.406 33.9334C144.727 33.8236 141.047 33.8237 137.369 33.9334C136.45 33.9609 135.058 33.9436 134.66 35.1375C132.661 35.1375 132.524 36.3268 130.914 36.8097C127.091 37.9566 123.138 43.046 121.583 46.6759C121.062 47.8908 119.684 47.2668 119.375 46.3415C118.268 46.3415 116.216 46.227 115.797 44.9702C114.179 44.9702 106.86 42.4804 105.262 41.5923C105.064 41.4823 104.819 41.5959 104.593 41.5923C101.196 41.5392 97.7894 41.3916 94.3922 41.3916C93.5872 41.3916 93.6538 41.4946 93.2216 41.9268C93.3914 42.0966 93.3862 42.0914 93.556 42.2612C92.1533 43.6639 89.5407 41.3975 88.8069 43.599C87.2491 43.599 85.551 43.928 84.0577 44.3013C82.0833 44.7949 81.682 47.025 78.6062 46.3415C77.6012 46.1181 75.6607 42.5552 75.3955 41.7595C75.2602 41.3537 71.4093 38.0809 70.6129 37.512C69.0921 36.4257 66.9657 35.9393 65.3621 35.1375C65.0378 34.9753 65.0517 34.3217 64.6932 34.2679C63.5679 34.0991 62.419 33.9727 61.2818 33.9334C58.1134 33.8242 54.9533 33.8797 51.7835 33.9334ZM67.0678 102.194C65.7741 102.221 63.9696 103.21 62.8203 103.9C61.9428 104.426 61.7588 105.614 60.7801 105.94C60.7801 108.205 57.9289 109.823 57.9039 112.228C57.8758 114.925 57.9222 117.624 57.9039 120.321L64.4591 120.321C64.4817 118.927 64.5259 117.535 64.5259 116.141C64.5259 114.437 67.9776 116.195 68.4055 117.479C69.1364 117.479 70.6477 117.681 71.148 118.181C71.0631 118.351 71.0657 118.346 70.9808 118.515C71.5469 119.082 72.5628 118.737 73.3554 118.85C76.6638 119.322 80.0138 119.238 83.3554 119.184C84.4431 119.167 84.5557 118.461 85.3955 118.181C90.3866 116.517 94.2695 111.422 99.1748 110.02C100.022 109.778 98.952 109.519 99.8437 109.184C100.919 108.781 109.181 114.154 109.676 115.639C111.85 115.639 113.159 118.077 115.128 118.683C118.364 119.678 122.714 119.345 125.998 119.017C128.121 118.805 129.026 119.665 129.576 118.014C130.894 118.014 132.498 118.009 132.954 116.642C133.488 116.642 136.856 115 136.867 115.974C136.884 117.423 136.863 118.872 136.867 120.321L143.322 120.321C143.308 118.08 143.346 115.84 143.322 113.599C143.293 110.939 139.098 103.558 136.198 102.729C133.197 101.872 128.847 102.311 126.332 102.562C124.866 102.709 123.277 102.163 121.917 102.729C121.088 103.075 119.607 104.117 118.707 104.234C117.584 104.381 116.405 104.012 115.295 104.234C114.903 104.313 114.852 105.026 114.459 105.104C112.096 105.577 111.166 104.081 110.546 105.94C107.835 105.94 105.401 106.116 102.385 106.275C102.069 106.291 101.937 106.985 101.884 107.144C99.9656 107.144 99.3031 107.763 98.8069 106.275C95.0069 106.275 90.8728 106.327 87.2684 105.606C87.1852 105.589 86.7661 104.803 86.5995 104.77C85.8779 104.625 85.1217 104.867 84.3922 104.77C82.7875 104.556 81.0264 103.207 79.4758 102.729C78.4061 102.4 75.9872 102.401 75.0276 102.362C72.3685 102.253 69.7286 102.14 67.0678 102.194Z" fill="#fddf19" fill-rule="nonzero" opacity="1" stroke="none"/>
<path d="M68.9632 102.395C61.203 102.395 54.8829 108.405 54.8829 115.806C54.8829 115.993 54.9057 116.179 54.9164 116.375C50.1806 116.898 46.4883 120.75 46.4883 125.405C46.4883 130.415 50.7674 134.502 56.0201 134.502L89.6656 134.502C95.3721 134.502 100 130.078 100 124.636C100 120.478 97.2249 116.776 93.1773 115.372C92.9119 111.655 89.6821 108.716 85.7191 108.716C84.2282 108.716 82.7856 109.12 81.5719 109.887C79.2206 105.359 74.324 102.395 68.9632 102.395ZM100 124.636C100 130.078 104.628 134.502 110.334 134.502L143.98 134.502C149.233 134.502 153.512 130.415 153.512 125.405C153.512 120.75 149.819 116.898 145.084 116.375C145.094 116.179 145.117 115.993 145.117 115.806C145.117 108.405 138.797 102.395 131.037 102.395C125.676 102.395 120.779 105.359 118.428 109.887C117.214 109.12 115.772 108.716 114.281 108.716C110.318 108.716 107.088 111.655 106.823 115.372C102.775 116.776 100 120.478 100 124.636Z" fill="#eeeeee" fill-rule="nonzero" opacity="1" stroke="none"/>
<g opacity="1">
<path d="M121.168 71.3247C119.628 71.1774 117.693 71.154 116.352 72.4953C116.179 72.6687 116.293 72.9342 116.252 73.1642C116.125 73.291 115.947 73.4692 115.817 73.599C115.594 73.6425 115.35 73.5311 115.181 73.6993C114.624 74.2566 114.362 74.9981 114.178 75.7395C113.989 76.5014 113.905 77.3545 113.877 78.2144C113.85 79.0743 113.893 79.9076 114.044 80.6893C114.192 81.4509 114.427 82.2426 115.014 82.8298C115.156 82.9713 115.366 82.8428 115.549 82.8967C115.72 83.1095 115.938 83.4143 116.285 83.8331C116.51 84.1037 116.764 84.3899 117.054 84.6358C117.324 84.8642 117.714 85.1722 118.325 85.2043C120.365 85.3117 122.364 85.2579 124.345 85.2043C125.232 85.1804 125.956 84.7396 126.486 84.2344C127.02 83.7249 127.436 83.111 127.757 82.4953C128.398 81.2618 128.73 80.0033 128.86 79.3515C129.228 77.5112 128.596 76.1455 127.891 75.1375C127.187 74.131 126.56 73.4524 126.285 72.6291C126.126 72.1526 125.684 71.8264 125.181 71.8264C124.319 71.8264 122.766 71.4776 121.168 71.3247Z" fill="#000000" fill-rule="nonzero" opacity="1" stroke="none"/>
<path d="M78.8939 70.9569C78.3622 70.877 77.7222 70.8637 76.9206 70.9903C75.9177 71.1486 75.1188 71.7813 74.4457 72.3615C73.7534 72.9583 73.1654 73.6084 72.74 74.0338C71.8091 74.9647 71.3306 76.2791 71.1347 77.5455C70.9374 78.8203 71.0092 80.154 71.4691 81.2579C71.7881 82.0234 72.2609 82.5122 72.6062 82.8967C72.9655 83.2966 73.2047 83.5885 73.3086 83.9L74.3788 84.6692C76.1655 84.6692 77.6749 84.808 78.9607 84.8699C80.2266 84.9308 81.3533 84.9744 82.4056 84.502C83.5254 83.9993 84.2439 82.9542 84.5795 81.5923C84.9126 80.2403 84.9578 78.4817 84.8805 76.007C84.8422 74.7807 84.0366 74.0461 83.5427 73.599C82.9783 73.088 82.6892 72.7777 82.6397 72.6291L81.536 71.8264C80.8248 71.8264 80.8237 71.7308 80.1982 71.3916C79.8525 71.2042 79.4256 71.0367 78.8939 70.9569Z" fill="#000000" fill-rule="nonzero" opacity="1" stroke="none"/>
</g>
</g>
</g>
</g>
</svg>
