<?xml version="1.0" encoding="UTF-8" standalone="no"?>
<!DOCTYPE svg PUBLIC "-//W3C//DTD SVG 1.1//EN" "http://www.w3.org/Graphics/SVG/1.1/DTD/svg11.dtd">
<!-- Created with Vectornator (http://vectornator.io/) -->
<svg height="100%" stroke-miterlimit="10" style="fill-rule:nonzero;clip-rule:evenodd;stroke-linecap:round;stroke-linejoin:round;" version="1.1" viewBox="0 0 200 200" width="100%" xml:space="preserve" xmlns="http://www.w3.org/2000/svg" xmlns:xlink="http://www.w3.org/1999/xlink">
<defs/>
<g id="Layer-1" opacity="0.2" >
<g opacity="1">
<path d="M100 0C44.77 0 3.33583e-07 44.77 0 100C0 155.23 44.77 200 100 200C155.23 200 200 155.23 200 100C200 44.77 155.23 3.33583e-07 100 0Z" fill="#979797" fill-rule="nonzero" opacity="1" stroke="none"/>
<g opacity="1">
<path d="M43.6038 41.2334C42.3382 41.2549 39.3976 41.4496 38.6358 42.2114C38.8344 42.4101 38.8283 42.4431 39.0269 42.6417C37.9513 43.7174 36.318 44.0852 35.0369 44.5976C33.4857 45.2181 29.8274 49.2595 28.6997 50.3872C26.9515 52.1353 25.9948 55.97 23.7316 56.7244C23.7316 59.8339 22.8767 59.732 22.3233 62.0836C21.3677 66.1449 22.0475 70.4302 22.1277 74.6015C22.1348 74.9675 22.9731 75.1311 23.1448 75.1883C23.1448 80.3461 29.5882 90.2498 34.8413 92.6743C36.4709 93.4264 38.4431 93.9664 40.2005 94.6694C40.8397 94.925 40.6902 95.5268 41.4132 95.6473C42.1434 95.769 42.8642 96.044 43.6038 96.0776C46.382 96.2039 49.1765 95.7327 51.9361 96.0776C53.9596 96.3306 53.2092 102.034 53.5399 104.019C53.9087 106.231 55.5892 107.78 56.3173 109.965C56.6855 111.069 58.6546 111.617 59.0948 112.938C60.0482 112.938 65.3363 117.252 66.2534 117.71C67.644 118.405 69.8798 117.878 71.4171 118.297C77.0403 119.831 83.0749 118.754 88.9031 118.688C89.4491 118.682 89.9794 118.541 90.4678 118.297C94.4484 116.307 87.4525 109.365 86.7124 106.405C86.451 105.359 86.1415 104.275 86.1257 103.197C86.0614 98.8274 85.9972 94.4609 86.1257 90.0925C86.1353 89.7642 87.0612 89.5081 87.1036 89.3101C87.2701 88.5332 86.8085 87.6616 87.1036 86.9239C87.3819 86.2283 88.2395 85.905 88.7075 85.32C91.6817 81.6022 95.0966 79.866 100.208 80.5476C100.58 80.5971 100.627 81.2782 100.991 81.3691C103.363 81.9621 105.98 81.3369 107.758 83.5597C109.096 85.2314 111.15 86.736 111.318 88.9189C111.45 90.6406 110.527 92.8616 111.748 94.0826C111.191 95.197 112.055 96.4169 111.748 97.6424C110.928 100.924 111.398 104.473 110.927 107.774C110.887 108.053 110.03 108.422 109.949 108.556C109.606 109.127 109.964 109.92 109.753 110.551C109.26 112.032 107.842 113.441 106.585 114.542C105.925 115.119 104.912 117.213 106.154 117.71C106.607 117.891 108.294 118.488 108.736 118.493C115.093 118.557 121.47 118.551 127.826 118.493C133.507 118.44 140.378 114.603 143.513 109.378C144.304 108.059 143.819 105.837 144.295 104.41C144.502 103.788 145.563 103.642 145.703 103.002C146.057 101.384 145.527 99.6795 145.703 98.0336C145.733 97.7542 146.01 97.4655 146.29 97.4468C149.065 97.2618 151.841 97.4468 154.622 97.4468C155.861 97.4468 161.639 96.4147 161.781 96.2732C161.682 96.0746 161.685 96.0416 161.585 95.8429C162.856 94.5724 164.006 94.5739 165.38 93.887C168.122 92.5158 170.725 89.9221 172.734 87.5107C179.653 79.2077 178.456 68.594 177.272 57.9371C177.188 57.1867 175.944 57.1473 175.512 56.5288C175.217 56.1081 175.172 54.52 174.886 53.947C174.571 53.3174 173.779 53.0731 173.321 52.5387C172.266 51.3075 171.684 49.1501 170.152 48.0009C168.896 47.0588 167.562 46.3436 166.162 45.2235C166.361 45.0249 166.355 44.9919 166.553 44.7932C166.076 44.3157 165.22 44.5345 164.558 44.402C163.128 44.1161 161.594 41.9527 160.216 41.6246C159.05 41.3469 157.816 41.2692 156.617 41.2334C152.315 41.105 148.01 41.105 143.708 41.2334C142.634 41.2655 141.005 41.2453 140.54 42.6417C138.201 42.6417 138.041 44.0328 136.158 44.5976C131.687 45.9391 127.064 51.8919 125.244 56.1376C124.635 57.5586 123.023 56.8287 122.662 55.7464C121.367 55.7464 118.967 55.6125 118.477 54.1426C116.584 54.1426 108.024 51.2303 106.154 50.1916C105.923 50.063 105.637 50.1957 105.372 50.1916C101.399 50.1295 97.4143 49.9569 93.4408 49.9569C92.4993 49.9569 92.5771 50.0773 92.0717 50.5828C92.2703 50.7814 92.2642 50.7753 92.4629 50.974C90.8222 52.6147 87.7664 49.9637 86.908 52.5387C85.086 52.5387 83.0998 52.9235 81.3532 53.3602C79.0439 53.9375 78.5745 56.5459 74.9769 55.7464C73.8013 55.4852 71.5317 51.3178 71.2215 50.3872C71.0633 49.9125 66.5591 46.0845 65.6276 45.4191C63.8487 44.1485 61.3616 43.5795 59.4859 42.6417C59.1067 42.4521 59.1229 41.6875 58.7036 41.6246C57.3874 41.4272 56.0436 41.2793 54.7135 41.2334C51.0076 41.1056 47.3114 41.1706 43.6038 41.2334ZM61.481 121.074C59.9679 121.105 57.8572 122.263 56.5129 123.069C55.4866 123.685 55.2714 125.074 54.1267 125.456C54.1267 128.105 50.7918 129.998 50.7625 132.81C50.7296 135.965 50.7839 139.121 50.7625 142.277L58.4297 142.277C58.4562 140.646 58.508 139.018 58.508 137.387C58.508 135.394 62.5452 137.45 63.0457 138.952C63.9006 138.952 65.6682 139.188 66.2534 139.773C66.1541 139.972 66.1572 139.966 66.0579 140.164C66.72 140.826 67.9082 140.423 68.8353 140.555C72.705 141.108 76.6232 141.01 80.5317 140.947C81.804 140.926 81.9357 140.1 82.9179 139.773C88.7557 137.827 93.2974 131.867 99.0348 130.228C100.026 129.945 98.7742 129.641 99.8172 129.25C101.075 128.778 110.739 135.063 111.318 136.8C113.86 136.8 115.391 139.651 117.694 140.36C121.48 141.524 126.568 141.135 130.408 140.751C132.892 140.503 133.95 141.509 134.594 139.577C136.135 139.577 138.012 139.572 138.545 137.974C139.169 137.974 143.108 136.053 143.121 137.191C143.141 138.887 143.117 140.581 143.121 142.277L150.671 142.277C150.655 139.655 150.7 137.035 150.671 134.414C150.638 131.303 145.731 122.669 142.339 121.7C138.829 120.697 133.741 121.21 130.799 121.505C129.085 121.676 127.226 121.038 125.635 121.7C124.666 122.104 122.933 123.323 121.88 123.461C120.567 123.632 119.189 123.201 117.89 123.461C117.431 123.552 117.371 124.386 116.912 124.478C114.148 125.03 113.06 123.281 112.335 125.456C109.164 125.456 106.318 125.661 102.79 125.847C102.42 125.866 102.265 126.678 102.203 126.864C99.9597 126.864 99.1849 127.588 98.6045 125.847C94.1598 125.847 89.3245 125.908 85.1086 125.064C85.0112 125.045 84.521 124.125 84.3262 124.086C83.4821 123.918 82.5976 124.2 81.7444 124.086C79.8675 123.836 77.8077 122.258 75.994 121.7C74.7428 121.315 71.9136 121.316 70.7912 121.27C67.6809 121.143 64.5932 121.011 61.481 121.074Z" fill="#d1d1d1" fill-rule="nonzero" opacity="1" stroke="none"/>
<path d="M63.698 121.309C54.6213 121.309 47.2291 128.338 47.2291 136.996C47.2291 137.214 47.2557 137.431 47.2682 137.661C41.729 138.272 37.4103 142.778 37.4103 148.223C37.4103 154.083 42.4153 158.863 48.5591 158.863L87.9124 158.863C94.5869 158.863 100 153.688 100 147.323C100 142.46 96.7541 138.13 92.0198 136.487C91.7094 132.14 87.9318 128.702 83.2964 128.702C81.5526 128.702 79.8652 129.175 78.4457 130.072C75.6955 124.776 69.9682 121.309 63.698 121.309ZM100 147.323C100 153.688 105.413 158.863 112.088 158.863L151.441 158.863C157.585 158.863 162.59 154.083 162.59 148.223C162.59 142.778 158.271 138.272 152.732 137.661C152.744 137.431 152.771 137.214 152.771 136.996C152.771 128.338 145.379 121.309 136.302 121.309C130.032 121.309 124.305 124.776 121.554 130.072C120.135 129.175 118.447 128.702 116.704 128.702C112.068 128.702 108.291 132.14 107.98 136.487C103.246 138.13 100 142.46 100 147.323Z" fill="#eeeeee" fill-rule="nonzero" opacity="1" stroke="none"/>
<g opacity="1">
<path d="M124.759 84.968C122.958 84.7956 120.695 84.7683 119.126 86.3371C118.923 86.5399 119.056 86.8505 119.009 87.1195C118.86 87.2678 118.652 87.4762 118.5 87.628C118.24 87.6789 117.954 87.5486 117.757 87.7454C117.105 88.3972 116.798 89.2645 116.583 90.1316C116.363 91.0228 116.263 92.0207 116.231 93.0264C116.199 94.0322 116.249 95.0069 116.427 95.9212C116.6 96.8119 116.874 97.7379 117.561 98.4247C117.727 98.5903 117.973 98.44 118.187 98.503C118.387 98.7519 118.642 99.1085 119.048 99.5983C119.31 99.9148 119.608 100.25 119.948 100.537C120.263 100.804 120.719 101.165 121.434 101.202C123.819 101.328 126.157 101.265 128.475 101.202C129.512 101.174 130.36 100.659 130.979 100.068C131.604 99.4717 132.091 98.7537 132.465 98.0336C133.216 96.5908 133.604 95.1188 133.756 94.3564C134.187 92.2039 133.447 90.6066 132.622 89.4275C131.799 88.2503 131.065 87.4566 130.744 86.4936C130.559 85.9363 130.041 85.5547 129.453 85.5547C128.445 85.5547 126.628 85.1468 124.759 84.968Z" fill="#000000" fill-rule="nonzero" opacity="1" stroke="none"/>
<path d="M75.3133 84.5377C74.6914 84.4443 73.943 84.4287 73.0053 84.5768C71.8323 84.762 70.8979 85.502 70.1106 86.1806C69.3008 86.8786 68.613 87.639 68.1155 88.1366C67.0266 89.2254 66.467 90.7628 66.2378 92.244C66.007 93.7351 66.091 95.2951 66.629 96.5862C67.0021 97.4816 67.5551 98.0533 67.959 98.503C68.3793 98.9708 68.6591 99.3122 68.7805 99.6765L70.0323 100.576C72.1221 100.576 73.8876 100.739 75.3916 100.811C76.8722 100.882 78.19 100.933 79.4208 100.381C80.7306 99.7927 81.571 98.5703 81.9635 96.9774C82.3531 95.396 82.406 93.3391 82.3155 90.4446C82.2707 89.0102 81.3285 88.151 80.7508 87.628C80.0906 87.0303 79.7525 86.6674 79.6946 86.4936L78.4037 85.5547C77.5718 85.5547 77.5706 85.4429 76.8389 85.0462C76.4346 84.827 75.9352 84.631 75.3133 84.5377Z" fill="#000000" fill-rule="nonzero" opacity="1" stroke="none"/>
</g>
</g>
</g>
</g>
</svg>
